<?xml version="1.0" encoding="UTF-8" standalone="no"?>
<svg
   xmlns:dc="http://purl.org/dc/elements/1.1/"
   xmlns:cc="http://creativecommons.org/ns#"
   xmlns:rdf="http://www.w3.org/1999/02/22-rdf-syntax-ns#"
   xmlns:svg="http://www.w3.org/2000/svg"
   xmlns="http://www.w3.org/2000/svg"
   viewBox="0 0 834.66669 580"
   height="580"
   width="834.66669"
   xml:space="preserve"
   id="svg2"
   version="1.1"><metadata
     id="metadata8"><rdf:RDF><cc:Work
         rdf:about=""><dc:format>image/svg+xml</dc:format><dc:type
           rdf:resource="http://purl.org/dc/dcmitype/StillImage" /></cc:Work></rdf:RDF></metadata><defs
     id="defs6"><clipPath
       id="clipPath36"
       clipPathUnits="userSpaceOnUse"><path
         id="path34"
         d="m 2150.09,2925.03 c -0.06,1.21 -0.09,2.41 -0.09,3.62 -0.02,18.09 6.66,36.16 20.46,49.97 l 909.52,909.52 c 12.9,12.89 29.56,19.52 46.44,20.37 v 0 0 0 L 3227.73,3530.45 3306.89,3235 2823.6,3105.5 2150.09,2925.03" /></clipPath><linearGradient
       id="linearGradient46"
       spreadMethod="pad"
       gradientTransform="matrix(732.579,191.703,191.703,-732.579,2648.4,3420.22)"
       gradientUnits="userSpaceOnUse"
       y2="0"
       x2="1"
       y1="0"
       x1="0"><stop
         id="stop38"
         offset="0"
         style="stop-opacity:1;stop-color:#7fcf61" /><stop
         id="stop40"
         offset="0.308622"
         style="stop-opacity:1;stop-color:#7fcf61" /><stop
         id="stop42"
         offset="0.899345"
         style="stop-opacity:1;stop-color:#5cc35b" /><stop
         id="stop44"
         offset="1"
         style="stop-opacity:1;stop-color:#5cc35b" /></linearGradient><clipPath
       id="clipPath58"
       clipPathUnits="userSpaceOnUse"><path
         id="path56"
         d="m 3133.57,1948.7 -180.47,673.51 483.29,129.5 673.51,180.47 v 0 0 c 0.06,-1.21 0.09,-2.41 0.1,-3.62 0.02,-18.09 -6.67,-36.16 -20.47,-49.97 l -909.52,-909.52 c -12.89,-12.9 -29.55,-19.52 -46.44,-20.37" /></clipPath><linearGradient
       id="linearGradient66"
       spreadMethod="pad"
       gradientTransform="matrix(-767.253,-217.734,-217.734,767.253,3793.98,2497.51)"
       gradientUnits="userSpaceOnUse"
       y2="0"
       x2="1"
       y1="0"
       x1="0"><stop
         id="stop60"
         offset="0"
         style="stop-opacity:1;stop-color:#4055ae" /><stop
         id="stop62"
         offset="0.380734"
         style="stop-opacity:1;stop-color:#4055ae" /><stop
         id="stop64"
         offset="1"
         style="stop-opacity:1;stop-color:#394ea9" /></linearGradient><clipPath
       id="clipPath78"
       clipPathUnits="userSpaceOnUse"><path
         id="path76"
         d="m 3129.87,1948.6 c -18.06,0 -36.11,6.69 -49.89,20.47 l -909.52,909.52 c -12.89,12.9 -19.52,29.55 -20.37,46.44 l 673.51,180.47 309.97,-1156.8 c -1.23,-0.07 -2.47,-0.1 -3.7,-0.1" /></clipPath><linearGradient
       id="linearGradient88"
       spreadMethod="pad"
       gradientTransform="matrix(-184.85,725.709,725.709,184.85,2681.7,2277.39)"
       gradientUnits="userSpaceOnUse"
       y2="0"
       x2="1"
       y1="0"
       x1="0"><stop
         id="stop80"
         offset="0"
         style="stop-opacity:1;stop-color:#43aaa2" /><stop
         id="stop82"
         offset="0.308622"
         style="stop-opacity:1;stop-color:#43aaa2" /><stop
         id="stop84"
         offset="0.968771"
         style="stop-opacity:1;stop-color:#3d939a" /><stop
         id="stop86"
         offset="1"
         style="stop-opacity:1;stop-color:#3d939a" /></linearGradient><clipPath
       id="clipPath100"
       clipPathUnits="userSpaceOnUse"><path
         id="path98"
         d="m 3436.39,2751.71 v 0 l -129.5,483.29 -79.16,295.45 -101.31,378.06 c 1.24,0.06 2.47,0.1 3.7,0.1 18.07,0 36.11,-6.69 49.89,-20.47 l 909.52,-909.52 c 12.9,-12.9 19.52,-29.55 20.37,-46.44 l -673.51,-180.47" /></clipPath><linearGradient
       id="linearGradient108"
       spreadMethod="pad"
       gradientTransform="matrix(219.095,-828.451,-828.451,-219.095,3546.95,3692.72)"
       gradientUnits="userSpaceOnUse"
       y2="0"
       x2="1"
       y1="0"
       x1="0"><stop
         id="stop102"
         offset="0"
         style="stop-opacity:1;stop-color:#53ade5" /><stop
         id="stop104"
         offset="0.428061"
         style="stop-opacity:1;stop-color:#53ade5" /><stop
         id="stop106"
         offset="1"
         style="stop-opacity:1;stop-color:#4583cc" /></linearGradient></defs><g
     transform="matrix(1.3333333,0,0,-1.3333333,0,580)"
     id="g10"><g
       transform="scale(0.1)"
       id="g12"><path
         id="path14"
         style="fill:#202954;fill-opacity:1;fill-rule:nonzero;stroke:none"
         d="m 831.059,1609.57 c -58.649,0 -103.032,-42.86 -103.032,-96.45 0,-53.59 44.383,-94.92 103.032,-94.92 60.234,0 103.039,42.87 103.039,97.98 0,52.06 -44.387,93.39 -103.039,93.39" /><path
         id="path16"
         style="fill:#202954;fill-opacity:1;fill-rule:nonzero;stroke:none"
         d="M 773.918,1261.56 H 650.004 c -11.051,0 -20.004,-8.96 -20.004,-20.01 v -94.74 c 0,-11.05 8.953,-20 20.004,-20 H 754.977 V 474.25 c 0,-13.07 10.597,-23.66 23.671,-23.66 h 104.829 c 13.07,0 23.671,10.59 23.671,23.66 v 787.79 h -128.5 c -1.621,0 -3.203,-0.17 -4.73,-0.48" /><path
         id="path18"
         style="fill:#202954;fill-opacity:1;fill-rule:nonzero;stroke:none"
         d="m 1590.75,1269.69 c -133.16,0 -240.94,-47.47 -302.77,-130.14 v 98.83 c 0,13.06 -10.59,23.66 -23.67,23.66 h -98.48 c -13.08,0 -23.68,-10.6 -23.68,-23.66 V 474.25 c 0,-13.07 10.6,-23.66 23.68,-23.66 h 104.82 c 13.08,0 23.68,10.59 23.68,23.66 v 394.309 c 0,176.061 104.62,269.461 266.3,269.461 144.25,0 226.67,-78.09 226.67,-237.309 V 474.25 c 0,-13.07 10.61,-23.66 23.68,-23.66 h 104.82 c 13.08,0 23.68,10.59 23.68,23.66 v 443.301 c 0,238.849 -144.25,352.139 -348.73,352.139" /><path
         id="path20"
         style="fill:#202954;fill-opacity:1;fill-rule:nonzero;stroke:none"
         d="m 2517.54,570 c -161.68,0 -283.74,113.301 -283.74,286.309 0,173.001 122.06,284.771 283.74,284.771 161.69,0 282.16,-111.77 282.16,-284.771 C 2799.7,683.301 2679.23,570 2517.54,570 Z m 0,699.69 c -252.03,0 -437.49,-171.48 -437.49,-413.381 0,-241.899 185.46,-414.911 437.49,-414.911 252.04,0 435.92,173.012 435.92,414.911 0,241.901 -183.88,413.381 -435.92,413.381" /><path
         id="path22"
         style="fill:#202954;fill-opacity:1;fill-rule:nonzero;stroke:none"
         d="m 3840.67,1262.04 h -110.11 c -9.21,0 -17.58,-5.34 -21.47,-13.68 l -296.48,-637.02 -290.02,636.84 c -3.85,8.44 -12.27,13.86 -21.55,13.86 H 2981.3 c -12.98,0 -21.57,-13.47 -16.1,-25.23 l 359.63,-772.54 c 3.89,-8.348 12.26,-13.68 21.47,-13.68 h 129.37 c 9.21,0 17.58,5.332 21.47,13.68 l 359.63,772.54 c 5.48,11.76 -3.12,25.23 -16.1,25.23" /><path
         id="path24"
         style="fill:#202954;fill-opacity:1;fill-rule:nonzero;stroke:none"
         d="m 4521.48,958.551 -501.62,-129.262 -1.12,15.27 c -12.41,169.501 93.27,289.161 252.95,300.641 124.93,8.98 224.25,-53.86 266.99,-152.641 6.08,-14.047 -2.38,-30.188 -17.2,-34.008 z m -258.84,310.339 c -243.47,-17.5 -407.92,-202.78 -390.37,-442.531 17.65,-241.269 210.51,-400.867 480.86,-381.437 130.03,9.348 236.42,57.226 305.33,137.617 8.11,9.461 7.64,23.59 -1.19,32.383 l -56.25,56.019 c -9.41,9.368 -24.65,9.11 -33.79,-0.519 -55.46,-58.473 -129.59,-90.473 -218.74,-96.883 -140.71,-10.117 -249.75,46.52 -300.59,154.93 l 636.6,167.832 c 11.72,3.09 19.03,14.508 17.38,26.519 -31.32,228.02 -216.84,362.06 -439.24,346.07" /><path
         id="path26"
         style="fill:#202954;fill-opacity:1;fill-rule:nonzero;stroke:none"
         d="m 5625.22,480.398 -357.66,385.102 337.85,366.77 c 10.47,11.38 2.4,29.77 -13.07,29.77 h -134.41 c -10.74,0 -20.98,-4.54 -28.19,-12.5 L 5176.25,969.602 4920.91,1249.63 c -7.2,7.9 -17.4,12.41 -28.1,12.41 h -138.28 c -15.45,0 -23.53,-18.35 -13.1,-29.73 L 5077.62,865.5 4723.3,480.34 c -10.47,-11.371 -2.39,-29.75 13.07,-29.75 h 138.17 c 10.7,0 20.91,4.512 28.11,12.422 l 271.77,298.379 268.09,-298.2 c 7.21,-8.019 17.5,-12.601 28.29,-12.601 h 141.41 c 15.5,0 23.56,18.461 13.01,29.808" /><path
         id="path28"
         style="fill:#7fcf61;fill-opacity:1;fill-rule:nonzero;stroke:none"
         d="m 2170.46,2978.62 c -14.72,-14.73 -21.34,-34.31 -20.37,-53.59 l 673.51,180.47 483.29,129.5 -79.16,295.45 -101.31,378.06 c -16.88,-0.85 -33.54,-7.48 -46.44,-20.37 l -909.52,-909.52" /><g
         id="g30"><g
           clip-path="url(#clipPath36)"
           id="g32"><path
             id="path48"
             style="fill:url(#linearGradient46);fill-opacity:1;fill-rule:nonzero;stroke:none"
             d="m 2150.09,2925.03 c -0.06,1.21 -0.09,2.41 -0.09,3.62 -0.02,18.09 6.66,36.16 20.46,49.97 l 909.52,909.52 c 12.9,12.89 29.56,19.52 46.44,20.37 v 0 0 0 L 3227.73,3530.45 3306.89,3235 2823.6,3105.5 2150.09,2925.03" /></g></g><path
         id="path50"
         style="fill:#4055ae;fill-opacity:1;fill-rule:nonzero;stroke:none"
         d="m 3436.39,2751.71 -483.29,-129.5 180.47,-673.51 c 16.89,0.85 33.55,7.47 46.44,20.37 l 909.52,909.52 c 14.72,14.73 21.35,34.31 20.37,53.59 l -673.51,-180.47" /><g
         id="g52"><g
           clip-path="url(#clipPath58)"
           id="g54"><path
             id="path68"
             style="fill:url(#linearGradient66);fill-opacity:1;fill-rule:nonzero;stroke:none"
             d="m 3133.57,1948.7 -180.47,673.51 483.29,129.5 673.51,180.47 v 0 0 c 0.06,-1.21 0.09,-2.41 0.1,-3.62 0.02,-18.09 -6.67,-36.16 -20.47,-49.97 l -909.52,-909.52 c -12.89,-12.9 -29.55,-19.52 -46.44,-20.37" /></g></g><path
         id="path70"
         style="fill:#43aaa2;fill-opacity:1;fill-rule:nonzero;stroke:none"
         d="m 2150.09,2925.03 c 0.85,-16.89 7.48,-33.54 20.37,-46.44 l 909.52,-909.52 c 14.73,-14.72 34.31,-21.35 53.59,-20.37 L 2823.6,3105.5 2150.09,2925.03" /><g
         id="g72"><g
           clip-path="url(#clipPath78)"
           id="g74"><path
             id="path90"
             style="fill:url(#linearGradient88);fill-opacity:1;fill-rule:nonzero;stroke:none"
             d="m 3129.87,1948.6 c -18.06,0 -36.11,6.69 -49.89,20.47 l -909.52,909.52 c -12.89,12.9 -19.52,29.55 -20.37,46.44 l 673.51,180.47 309.97,-1156.8 c -1.23,-0.07 -2.47,-0.1 -3.7,-0.1" /></g></g><path
         id="path92"
         style="fill:#53ade5;fill-opacity:1;fill-rule:nonzero;stroke:none"
         d="m 3306.89,3235 129.5,-483.29 673.51,180.47 c -0.85,16.89 -7.47,33.54 -20.37,46.44 l -909.52,909.52 c -14.72,14.72 -34.31,21.34 -53.59,20.37 l 101.31,-378.06 79.16,-295.45" /><g
         id="g94"><g
           clip-path="url(#clipPath100)"
           id="g96"><path
             id="path110"
             style="fill:url(#linearGradient108);fill-opacity:1;fill-rule:nonzero;stroke:none"
             d="m 3436.39,2751.71 v 0 l -129.5,483.29 -79.16,295.45 -101.31,378.06 c 1.24,0.06 2.47,0.1 3.7,0.1 18.07,0 36.11,-6.69 49.89,-20.47 l 909.52,-909.52 c 12.9,-12.9 19.52,-29.55 20.37,-46.44 l -673.51,-180.47" /></g></g></g></g></svg>